<svg xmlns="http://www.w3.org/2000/svg" width="300" height="400" viewBox="0 0 300 400" shape-rendering="crispEdges"><rect x="0" y="0" width="300" height="400" fill="#fde4ea"/><rect x="0" y="260" width="300" height="140" fill="#f8c6d2"/><circle cx="150" cy="150" r="96" fill="#fffaf3" opacity="0.8"/><rect x="80" y="276" width="140" height="20" fill="#e6e2f6"/><rect x="70" y="296" width="160" height="30" fill="#b8b2e3"/><rect x="70" y="296" width="160" height="4" fill="#fffaf3"/><rect x="134" y="92" width="32" height="18" fill="#2d3668"/><rect x="138" y="70" width="24" height="24" fill="#1f2550"/><rect x="141" y="58" width="18" height="14" fill="#2d3668"/><rect x="112" y="110" width="76" height="166" fill="#1f2550"/><rect x="115" y="113" width="70" height="160" fill="#f3b596"/><rect x="115" y="113" width="12" height="160" fill="#f8cdb4"/><rect x="170" y="113" width="15" height="160" fill="#d98a57"/><rect x="124" y="160" width="52" height="64" fill="#fffaf3"/><rect x="132" y="172" width="36" height="7" fill="#2d3668"/><rect x="132" y="186" width="28" height="4" fill="#e9738f"/><rect x="132" y="196" width="32" height="4" fill="#b8b2e3"/><rect x="132" y="206" width="20" height="4" fill="#b8b2e3"/><rect x="60" y="79" width="4" height="14" fill="#fffaf3"/><rect x="55" y="84" width="14" height="4" fill="#fffaf3"/><rect x="232" y="119" width="4" height="14" fill="#fffaf3"/><rect x="227" y="124" width="14" height="4" fill="#fffaf3"/><rect x="38" y="228" width="40" height="12" fill="#8fd6b4"/><rect x="46" y="220" width="24" height="8" fill="#4fa585"/><rect x="222" y="236" width="44" height="12" fill="#8fd6b4"/><rect x="232" y="228" width="24" height="8" fill="#4fa585"/><rect x="36" y="340" width="150" height="10" fill="#2d3668"/><rect x="36" y="356" width="96" height="6" fill="#c9536f"/><rect x="0" y="378" width="300" height="22" fill="#1f2550"/><text x="150" y="393" fill="#fbf4ea" font-family="monospace" font-size="11" font-weight="700" text-anchor="middle" letter-spacing="1.5">PLACEHOLDER · ARTWORK COMING SOON</text></svg>
